<?xml version="1.0" encoding="UTF-8"?>
<svg xmlns="http://www.w3.org/2000/svg" xmlns:xlink="http://www.w3.org/1999/xlink" viewBox="0 0 183.86 131.72">
  <defs>
    <style>
      .i {
        fill: url(#f);
      }

      .i, .j, .k, .l, .m {
        mix-blend-mode: overlay;
      }

      .n {
        isolation: isolate;
      }

      .o {
        fill: #acaeb3;
      }

      .p {
        fill: url(#e);
      }

      .j {
        fill: url(#g);
      }

      .j, .k {
        opacity: .4;
      }

      .q {
        fill: url(#b);
      }

      .k {
        fill: url(#d);
      }

      .l {
        fill: url(#c);
      }

      .m {
        fill: url(#h);
        opacity: .2;
      }
    </style>
    <radialGradient id="b" cx="-138.5" cy="17.81" fx="-138.5" fy="17.81" r="90.63" gradientTransform="translate(8.53) rotate(-180) scale(1 -1)" gradientUnits="userSpaceOnUse">
      <stop offset="0" stop-color="#f9f9f9"/>
      <stop offset=".16" stop-color="#ede9f2"/>
      <stop offset="1" stop-color="#9b9da2"/>
    </radialGradient>
    <radialGradient id="c" cx="1100.72" cy="-1873.16" fx="1100.72" fy="-1873.16" r="13.6" gradientTransform="translate(-1953.36 -3701.37) rotate(126.03) scale(1.43 2.08) skewX(-4.38)" gradientUnits="userSpaceOnUse">
      <stop offset="0" stop-color="#fff"/>
      <stop offset=".1" stop-color="#fff" stop-opacity=".85"/>
      <stop offset=".29" stop-color="#fff" stop-opacity=".59"/>
      <stop offset=".47" stop-color="#fff" stop-opacity=".38"/>
      <stop offset=".63" stop-color="#fff" stop-opacity=".22"/>
      <stop offset=".78" stop-color="#fff" stop-opacity=".1"/>
      <stop offset=".91" stop-color="#fff" stop-opacity=".03"/>
      <stop offset="1" stop-color="#fff" stop-opacity="0"/>
    </radialGradient>
    <radialGradient id="d" data-name="Degradado sin nombre 34" cx="-2964.55" cy="2974.14" fx="-2964.55" fy="2974.14" r="13.13" gradientTransform="translate(-4024.52 -1024.26) rotate(-136.79) scale(1.61 .68) skewX(11.83)" gradientUnits="userSpaceOnUse">
      <stop offset="0" stop-color="#fff"/>
      <stop offset=".1" stop-color="#fff" stop-opacity=".85"/>
      <stop offset=".29" stop-color="#fff" stop-opacity=".59"/>
      <stop offset=".47" stop-color="#fff" stop-opacity=".38"/>
      <stop offset=".63" stop-color="#fff" stop-opacity=".22"/>
      <stop offset=".78" stop-color="#fff" stop-opacity=".1"/>
      <stop offset=".91" stop-color="#fff" stop-opacity=".03"/>
      <stop offset="1" stop-color="#fff" stop-opacity="0"/>
    </radialGradient>
    <radialGradient id="e" cx="101.96" cy="40.5" fx="101.96" fy="40.5" r="124.22" gradientTransform="translate(203.93 70.09) rotate(-180) scale(1 .73)" gradientUnits="userSpaceOnUse">
      <stop offset="0" stop-color="#fff"/>
      <stop offset=".2" stop-color="#d5f3ff"/>
      <stop offset="1" stop-color="#85bcf1"/>
    </radialGradient>
    <radialGradient id="f" cx="1138.84" cy="-1855.36" fx="1138.84" fy="-1855.36" r="14.99" xlink:href="#c"/>
    <radialGradient id="g" cx="1138.39" cy="-1883.04" fx="1138.39" fy="-1883.04" r="11.78" xlink:href="#c"/>
    <radialGradient id="h" data-name="Degradado sin nombre 34" cx="19.33" cy="107.24" fx="19.33" fy="107.24" r="8.61" gradientTransform="translate(-133.51 -165.66) rotate(-25.71) scale(1 2.91)" xlink:href="#d"/>
  </defs>
  <g class="n">
    <g id="a" data-name="Capa 1">
      <g>
        <g>
          <path class="q" d="M88.37,47.74c0,26.37,21.38,47.74,47.74,47.74s47.74-21.37,47.74-47.74S162.48,0,136.12,0s-47.74,21.38-47.74,47.74Z"/>
          <g>
            <path class="o" d="M102.76,56.19c4.49-.4,7.69-5.49,7.16-11.37-.52-5.87-4.59-10.31-9.08-9.9-4.48,.4-7.69,5.49-7.16,11.36,.53,5.87,4.59,10.31,9.08,9.91Z"/>
            <path class="o" d="M98.87,60.46c-2.69,1.41-3.37,5.41-1.52,8.93,1.85,3.52,5.52,5.22,8.21,3.82,2.68-1.41,3.36-5.41,1.52-8.92-1.84-3.52-5.52-5.23-8.21-3.82Z"/>
            <path class="o" d="M109.51,56.22c-1.59,.84-1.99,3.19-.9,5.27s3.26,3.09,4.85,2.26c1.59-.83,1.99-3.19,.9-5.27-1.09-2.08-3.26-3.09-4.85-2.25Z"/>
            <path class="o" d="M180.21,49.47c-.83-5.84-5.11-10.06-9.57-9.43-4.46,.63-7.4,5.87-6.58,11.71,.82,5.84,5.11,10.06,9.57,9.43,4.46-.63,7.41-5.87,6.58-11.71Z"/>
            <path class="o" d="M174.31,35.57c2.61-1.55,3.09-5.57,1.06-8.99-2.02-3.42-5.78-4.94-8.39-3.39-2.61,1.54-3.09,5.57-1.06,8.99,2.02,3.42,5.78,4.94,8.39,3.4Z"/>
            <path class="o" d="M164.52,35.03c-1.19-2.02-3.41-2.92-4.96-2.01-1.54,.91-1.82,3.29-.63,5.31,1.19,2.02,3.42,2.92,4.96,2.01,1.54-.91,1.83-3.29,.63-5.31Z"/>
          </g>
          <g>
            <path class="l" d="M143.39,42.83c-12.16-9.87-16.91-24.88-10.61-33.55,6.31-8.67,21.28-7.7,33.44,2.16,12.16,9.86,16.9,24.89,10.6,33.55-6.31,8.68-21.28,7.7-33.43-2.16Z"/>
            <path class="k" d="M93.92,58.29c1.61-5.28,9.8-3.09,18.3,4.89,8.49,7.98,14.08,18.73,12.47,24.01-1.61,5.28-9.79,3.09-18.3-4.89-8.49-7.98-14.07-18.74-12.47-24.01Z"/>
          </g>
        </g>
        <g>
          <path class="p" d="M129.06,60.6c-1.7-24.84-22.37-44.46-47.64-44.46s-45.94,19.63-47.63,44.46C14.97,61.53,0,77.08,0,96.14s15.93,35.58,35.58,35.58H127.28c19.65,0,35.58-15.93,35.58-35.58s-14.97-34.6-33.79-35.53Z"/>
          <path class="i" d="M81.43,65.03c-13.4-10.87-18.63-27.41-11.68-36.96,6.95-9.55,23.44-8.47,36.84,2.38,13.39,10.86,18.62,27.42,11.68,36.96-6.95,9.55-23.44,8.48-36.83-2.38Z"/>
          <path class="j" d="M129.32,97.14c-10.53-8.54-14.64-21.54-9.18-29.05,5.46-7.5,18.42-6.66,28.95,1.87,10.53,8.54,14.63,21.55,9.18,29.05-5.46,7.51-18.42,6.66-28.95-1.87Z"/>
          <path class="m" d="M25.44,98.34c-7.77-12.12-16.79-17.95-20.17-13.04-3.37,4.91,.19,18.72,7.96,30.84,7.77,12.12,16.8,17.95,20.17,13.04,3.37-4.93-.19-18.72-7.96-30.84Z"/>
        </g>
      </g>
    </g>
  </g>
</svg>