<?xml version="1.0" encoding="utf-8"?>
<!-- Generator: Adobe Illustrator 27.0.1, SVG Export Plug-In . SVG Version: 6.00 Build 0)  -->
<svg version="1.1" id="Capa_1" xmlns="http://www.w3.org/2000/svg" xmlns:xlink="http://www.w3.org/1999/xlink" x="0px" y="0px"
	 viewBox="0 0 197 196" style="enable-background:new 0 0 197 196;" xml:space="preserve">
<style type="text/css">
	.st0{fill:url(#SVGID_1_);}
	.st1{opacity:0.6;fill:url(#SVGID_00000134239873281945795260000005291314402329201571_);}
	.st2{opacity:0.4;fill:url(#SVGID_00000140010001544641698450000001503917409236610691_);}
	.st3{opacity:0.2;fill:url(#SVGID_00000000198618813820844930000010192978492850598288_);}
	.st4{fill:url(#SVGID_00000144311254037514677300000014781479365405385394_);}
	.st5{fill:url(#SVGID_00000005948367975344978920000017801874190700195753_);}
	.st6{opacity:0.4;fill:url(#SVGID_00000000217414266894484190000015959749928607162765_);}
	.st7{opacity:0.2;fill:url(#SVGID_00000141452990185204115860000009841467573224761504_);}
</style>
<g>
	<g>
		
			<radialGradient id="SVGID_1_" cx="139.2321" cy="57.2165" r="110.9344" gradientTransform="matrix(-1 0 0 -0.7305 278.4643 99.0125)" gradientUnits="userSpaceOnUse">
			<stop  offset="0" style="stop-color:#B6CCD2"/>
			<stop  offset="0.198" style="stop-color:#97B6BE"/>
			<stop  offset="1" style="stop-color:#5D87B4"/>
		</radialGradient>
		<path class="st0" d="M163.4,75.2c-1.5-22.2-20-39.7-42.5-39.7c-22.6,0-41,17.5-42.5,39.7C61.5,76,48.2,89.9,48.2,106.9
			c0,17.6,14.2,31.8,31.8,31.8h81.9c17.5,0,31.8-14.2,31.8-31.8C193.6,89.9,180.2,76,163.4,75.2z"/>
		
			<radialGradient id="SVGID_00000042017467284031906700000012643625352903456437_" cx="1121.3097" cy="-1832.0571" r="13.3843" gradientTransform="matrix(-0.8392 1.1536 -1.6186 -1.3126 -1889.2531 -3634.6194)" gradientUnits="userSpaceOnUse">
			<stop  offset="0" style="stop-color:#FFFFFF"/>
			<stop  offset="1" style="stop-color:#FFFFFF;stop-opacity:0"/>
		</radialGradient>
		<path style="opacity:0.6;fill:url(#SVGID_00000042017467284031906700000012643625352903456437_);" d="M123.9,79.1
			c-12-9.7-16.6-24.5-10.4-33c6.2-8.5,20.9-7.6,32.9,2.1c12,9.7,16.6,24.5,10.4,33C150.6,89.8,135.8,88.8,123.9,79.1z"/>
		
			<radialGradient id="SVGID_00000082354362556571539890000013265754607926113469_" cx="1122.2267" cy="-1855.6211" r="10.5185" gradientTransform="matrix(-0.8392 1.1536 -1.6186 -1.3126 -1889.2531 -3634.6194)" gradientUnits="userSpaceOnUse">
			<stop  offset="0" style="stop-color:#FFFFFF"/>
			<stop  offset="1" style="stop-color:#FFFFFF;stop-opacity:0"/>
		</radialGradient>
		<path style="opacity:0.4;fill:url(#SVGID_00000082354362556571539890000013265754607926113469_);" d="M163.7,107.8
			c-9.4-7.6-13.1-19.2-8.2-25.9c4.9-6.7,16.5-5.9,25.9,1.7c9.4,7.6,13.1,19.2,8.2,25.9C184.6,116.2,173.1,115.4,163.7,107.8z"/>
		
			<radialGradient id="SVGID_00000058572917741008739730000011870583221293538711_" cx="65.4379" cy="116.8223" r="7.6912" gradientTransform="matrix(0.901 -0.4338 1.2628 2.6229 -141.042 -161.2073)" gradientUnits="userSpaceOnUse">
			<stop  offset="0" style="stop-color:#FFFFFF"/>
			<stop  offset="1" style="stop-color:#FFFFFF;stop-opacity:0"/>
		</radialGradient>
		<path style="opacity:0.2;fill:url(#SVGID_00000058572917741008739730000011870583221293538711_);" d="M70.9,108.9
			c-6.9-10.8-15-16-18-11.6c-3,4.4,0.2,16.7,7.1,27.5c6.9,10.8,15,16,18,11.6C81,132,77.8,119.7,70.9,108.9z"/>
	</g>
	<g>
		
			<radialGradient id="SVGID_00000165956167125152145310000005368907454837622172_" cx="94.4476" cy="79.0734" r="110.9368" gradientTransform="matrix(-1 0 0 -0.7305 188.8953 136.8356)" gradientUnits="userSpaceOnUse">
			<stop  offset="0" style="stop-color:#FFFFFF"/>
			<stop  offset="0.198" style="stop-color:#D5F3FF"/>
			<stop  offset="1" style="stop-color:#85BCF1"/>
		</radialGradient>
		<path style="fill:url(#SVGID_00000165956167125152145310000005368907454837622172_);" d="M118.6,97c-1.5-22.2-20-39.7-42.5-39.7
			c-22.6,0-41,17.5-42.5,39.7c-16.8,0.8-30.2,14.7-30.2,31.7c0,17.6,14.2,31.8,31.8,31.8h81.9c17.5,0,31.8-14.2,31.8-31.8
			C148.8,111.7,135.5,97.9,118.6,97z"/>
		
			<radialGradient id="SVGID_00000181069539613865917470000011375456890413190302_" cx="1154.3467" cy="-1819.6738" r="13.3844" gradientTransform="matrix(-0.8392 1.1536 -1.6186 -1.3126 -1889.2531 -3634.6194)" gradientUnits="userSpaceOnUse">
			<stop  offset="0" style="stop-color:#FFFFFF"/>
			<stop  offset="1" style="stop-color:#FFFFFF;stop-opacity:0"/>
		</radialGradient>
		<path style="fill:url(#SVGID_00000181069539613865917470000011375456890413190302_);" d="M76.1,101c-12-9.7-16.6-24.5-10.4-33
			c6.2-8.5,20.9-7.6,32.9,2.1c12,9.7,16.6,24.5,10.4,33C102.8,111.6,88.1,110.7,76.1,101z"/>
		
			<radialGradient id="SVGID_00000158016381520511147600000001500185454225482148_" cx="1153.9448" cy="-1844.397" r="10.5185" gradientTransform="matrix(-0.8392 1.1536 -1.6186 -1.3126 -1889.2531 -3634.6194)" gradientUnits="userSpaceOnUse">
			<stop  offset="0" style="stop-color:#FFFFFF"/>
			<stop  offset="1" style="stop-color:#FFFFFF;stop-opacity:0"/>
		</radialGradient>
		<path style="opacity:0.4;fill:url(#SVGID_00000158016381520511147600000001500185454225482148_);" d="M118.9,129.7
			c-9.4-7.6-13.1-19.2-8.2-25.9c4.9-6.7,16.5-5.9,25.9,1.7c9.4,7.6,13.1,19.2,8.2,25.9C139.8,138,128.3,137.3,118.9,129.7z"/>
		
			<radialGradient id="SVGID_00000123439333194650701120000008460413308353336240_" cx="20.6534" cy="138.6801" r="7.6916" gradientTransform="matrix(0.901 -0.4338 1.2628 2.6229 -173.0761 -216.1074)" gradientUnits="userSpaceOnUse">
			<stop  offset="0" style="stop-color:#FFFFFF"/>
			<stop  offset="1" style="stop-color:#FFFFFF;stop-opacity:0"/>
		</radialGradient>
		<path style="opacity:0.2;fill:url(#SVGID_00000123439333194650701120000008460413308353336240_);" d="M26.1,130.7
			c-6.9-10.8-15-16-18-11.6c-3,4.4,0.2,16.7,7.1,27.5c6.9,10.8,15,16,18,11.6C36.2,153.9,33,141.6,26.1,130.7z"/>
	</g>
</g>
</svg>
