<?xml version="1.0" encoding="utf-8"?>
<!-- Generator: Adobe Illustrator 27.0.1, SVG Export Plug-In . SVG Version: 6.00 Build 0)  -->
<svg version="1.1" id="Capa_1" xmlns="http://www.w3.org/2000/svg" xmlns:xlink="http://www.w3.org/1999/xlink" x="0px" y="0px"
	 viewBox="0 0 197 196" style="enable-background:new 0 0 197 196;" xml:space="preserve">
<style type="text/css">
	.st0{fill:url(#SVGID_1_);}
	.st1{opacity:0.6;fill:url(#SVGID_00000026857642301786606090000014953823212011950988_);}
	.st2{opacity:0.4;fill:url(#SVGID_00000122700180566154901700000001105579225908863143_);}
	.st3{opacity:0.2;fill:url(#SVGID_00000007416046734184925240000018419680512592803734_);}
	.st4{fill:url(#SVGID_00000145744435732804688390000008306056852289273789_);}
	.st5{fill:url(#SVGID_00000083074811996018448540000001263560375428410248_);}
	.st6{opacity:0.4;fill:url(#SVGID_00000167358461100075379270000010851664545351536034_);}
	.st7{opacity:0.2;fill:url(#SVGID_00000167376710636587017550000016819410071783172543_);}
	.st8{fill:url(#SVGID_00000082339139324722391460000011116644063957378466_);}
</style>
<g>
	<g>
		<g>
			
				<radialGradient id="SVGID_1_" cx="138.589" cy="47.244" r="109.1829" gradientTransform="matrix(-1 0 0 -0.7305 277.178 81.7552)" gradientUnits="userSpaceOnUse">
				<stop  offset="0" style="stop-color:#B6CCD2"/>
				<stop  offset="0.198" style="stop-color:#97B6BE"/>
				<stop  offset="1" style="stop-color:#5D87B4"/>
			</radialGradient>
			<path class="st0" d="M162.4,64.9c-1.5-21.8-19.7-39.1-41.9-39.1c-22.2,0-40.4,17.2-41.9,39.1C62.1,65.7,49,79.4,49,96.1
				c0,17.3,14,31.3,31.3,31.3h80.6c17.3,0,31.3-14,31.3-31.3C192.1,79.4,178.9,65.7,162.4,64.9z"/>
			
				<radialGradient id="SVGID_00000045582209513579401720000002110946988683306144_" cx="1116.0725" cy="-1828.9846" r="13.1729" gradientTransform="matrix(-0.8392 1.1536 -1.6186 -1.3126 -1889.2531 -3634.6194)" gradientUnits="userSpaceOnUse">
				<stop  offset="0" style="stop-color:#FFFFFF"/>
				<stop  offset="1" style="stop-color:#FFFFFF;stop-opacity:0"/>
			</radialGradient>
			<path style="opacity:0.6;fill:url(#SVGID_00000045582209513579401720000002110946988683306144_);" d="M123.5,68.8
				c-11.8-9.6-16.4-24.1-10.3-32.5c6.1-8.4,20.6-7.4,32.4,2.1c11.8,9.5,16.4,24.1,10.3,32.5C149.7,79.3,135.3,78.4,123.5,68.8z"/>
			
				<radialGradient id="SVGID_00000155138116809279903440000001172072470551493815_" cx="1116.975" cy="-1852.1765" r="10.3524" gradientTransform="matrix(-0.8392 1.1536 -1.6186 -1.3126 -1889.2531 -3634.6194)" gradientUnits="userSpaceOnUse">
				<stop  offset="0" style="stop-color:#FFFFFF"/>
				<stop  offset="1" style="stop-color:#FFFFFF;stop-opacity:0"/>
			</radialGradient>
			<path style="opacity:0.4;fill:url(#SVGID_00000155138116809279903440000001172072470551493815_);" d="M162.6,97
				c-9.3-7.5-12.9-18.9-8.1-25.5c4.8-6.6,16.2-5.9,25.4,1.6c9.3,7.5,12.9,18.9,8.1,25.5C183.3,105.3,171.9,104.5,162.6,97z"/>
			
				<radialGradient id="SVGID_00000116920220774296872890000001874706894964310443_" cx="65.9599" cy="105.9088" r="7.5698" gradientTransform="matrix(0.901 -0.4338 1.2628 2.6229 -127.209 -143.269)" gradientUnits="userSpaceOnUse">
				<stop  offset="0" style="stop-color:#FFFFFF"/>
				<stop  offset="1" style="stop-color:#FFFFFF;stop-opacity:0"/>
			</radialGradient>
			<path style="opacity:0.2;fill:url(#SVGID_00000116920220774296872890000001874706894964310443_);" d="M71.3,98.1
				c-6.8-10.7-14.8-15.8-17.7-11.5c-3,4.3,0.2,16.5,7,27.1c6.8,10.6,14.8,15.8,17.7,11.5C81.3,120.9,78.2,108.7,71.3,98.1z"/>
		</g>
		<g>
			
				<radialGradient id="SVGID_00000075143929979859636370000009829083506122291864_" cx="94.5116" cy="68.7558" r="109.1852" gradientTransform="matrix(-1 0 0 -0.7305 189.0232 118.9812)" gradientUnits="userSpaceOnUse">
				<stop  offset="0" style="stop-color:#FFFFFF"/>
				<stop  offset="0.198" style="stop-color:#D5F3FF"/>
				<stop  offset="1" style="stop-color:#85BCF1"/>
			</radialGradient>
			<path style="fill:url(#SVGID_00000075143929979859636370000009829083506122291864_);" d="M118.3,86.4
				c-1.5-21.8-19.7-39.1-41.9-39.1c-22.2,0-40.4,17.2-41.9,39.1c-16.5,0.8-29.7,14.5-29.7,31.2c0,17.3,14,31.3,31.3,31.3h80.6
				c17.3,0,31.3-14,31.3-31.3C148,100.9,134.9,87.2,118.3,86.4z"/>
			
				<radialGradient id="SVGID_00000080196930919523966930000014700406013298362798_" cx="1148.5878" cy="-1816.7969" r="13.1731" gradientTransform="matrix(-0.8392 1.1536 -1.6186 -1.3126 -1889.2531 -3634.6194)" gradientUnits="userSpaceOnUse">
				<stop  offset="0" style="stop-color:#FFFFFF"/>
				<stop  offset="1" style="stop-color:#FFFFFF;stop-opacity:0"/>
			</radialGradient>
			<path style="fill:url(#SVGID_00000080196930919523966930000014700406013298362798_);" d="M76.5,90.3
				c-11.8-9.6-16.4-24.1-10.3-32.5c6.1-8.4,20.6-7.5,32.4,2.1c11.8,9.6,16.4,24.1,10.3,32.5C102.7,100.8,88.2,99.9,76.5,90.3z"/>
			
				<radialGradient id="SVGID_00000090991037281800608970000016072593882460963738_" cx="1148.1923" cy="-1841.1296" r="10.3524" gradientTransform="matrix(-0.8392 1.1536 -1.6186 -1.3126 -1889.2531 -3634.6194)" gradientUnits="userSpaceOnUse">
				<stop  offset="0" style="stop-color:#FFFFFF"/>
				<stop  offset="1" style="stop-color:#FFFFFF;stop-opacity:0"/>
			</radialGradient>
			<path style="opacity:0.4;fill:url(#SVGID_00000090991037281800608970000016072593882460963738_);" d="M118.6,118.5
				c-9.3-7.5-12.9-18.9-8.1-25.5c4.8-6.6,16.2-5.9,25.4,1.6c9.2,7.5,12.9,18.9,8.1,25.5C139.2,126.8,127.8,126,118.6,118.5z"/>
			
				<radialGradient id="SVGID_00000170963749195757968970000014030753631375639967_" cx="21.8825" cy="127.4214" r="7.5701" gradientTransform="matrix(0.901 -0.4338 1.2628 2.6229 -158.7373 -197.3022)" gradientUnits="userSpaceOnUse">
				<stop  offset="0" style="stop-color:#FFFFFF"/>
				<stop  offset="1" style="stop-color:#FFFFFF;stop-opacity:0"/>
			</radialGradient>
			<path style="opacity:0.2;fill:url(#SVGID_00000170963749195757968970000014030753631375639967_);" d="M27.2,119.6
				c-6.8-10.7-14.8-15.8-17.7-11.5c-3,4.3,0.2,16.5,7,27.1c6.8,10.7,14.8,15.8,17.7,11.5C37.2,142.4,34.1,130.2,27.2,119.6z"/>
		</g>
	</g>
	
		<linearGradient id="SVGID_00000072244562188640155920000014810891756522951102_" gradientUnits="userSpaceOnUse" x1="62.8473" y1="170.9239" x2="73.7996" y2="136.4357" gradientTransform="matrix(0.9625 0.2714 -0.2714 0.9625 48.9089 -13.2991)">
		<stop  offset="0.1559" style="stop-color:#FFE036"/>
		<stop  offset="1" style="stop-color:#FA761C"/>
	</linearGradient>
	<path style="fill:url(#SVGID_00000072244562188640155920000014810891756522951102_);" d="M80.9,151.2l-0.8-0.2l-3.2-0.9l10.2-10.9
		c0.4-0.5,0.9-1,1.2-1.6c2-3.7,0.5-8.3-3.2-10.3c-3.7-2-8.3-0.5-10.3,3.2l-10.2,19.4l-0.3,0.6c-0.1,0.3-0.3,0.6-0.3,0.9
		c-0.7,2.5,0.7,5,3.2,5.7l4.9,1.4l-5.7,10.2c-0.2,0.4-0.2,0.8,0.1,1.2c0.4,0.5,1,0.5,1.5,0.2l14.5-11.5c0.7-0.5,1.2-1.3,1.4-2.1
		C84.4,154.1,83.2,151.8,80.9,151.2z"/>
</g>
</svg>
