<?xml version="1.0" encoding="utf-8"?>
<!-- Generator: Adobe Illustrator 27.0.1, SVG Export Plug-In . SVG Version: 6.00 Build 0)  -->
<svg version="1.1" id="Capa_1" xmlns="http://www.w3.org/2000/svg" xmlns:xlink="http://www.w3.org/1999/xlink" x="0px" y="0px"
	 viewBox="0 0 197 196" style="enable-background:new 0 0 197 196;" xml:space="preserve">
<style type="text/css">
	.st0{fill:url(#SVGID_1_);}
</style>
<radialGradient id="SVGID_1_" cx="151.9171" cy="60.8452" r="158.837" gradientUnits="userSpaceOnUse">
	<stop  offset="0" style="stop-color:#28CBE9"/>
	<stop  offset="1" style="stop-color:#0A4FBB"/>
</radialGradient>
<path class="st0" d="M175.9,132.6l-17-9.8l5.3-3c4.2-2.4,5.6-7.8,3.2-11.9c-2.4-4.2-7.8-5.6-11.9-3.2l-14,8.1l-12.9-7.5
	c0.6-2.3,0.9-4.7,0.9-7.2c0-2.5-0.3-4.9-0.9-7.2l12.9-7.5l14,8.1c1.4,0.8,2.9,1.2,4.4,1.2c3,0,6-1.6,7.6-4.4c2.4-4.2,1-9.5-3.2-11.9
	l-5.3-3l17-9.8c4.2-2.4,5.6-7.8,3.2-11.9c-2.4-4.2-7.8-5.6-11.9-3.2l-17,9.8l0-6.1c0-4.8-3.9-8.7-8.7-8.7l0,0
	c-4.8,0-8.7,3.9-8.7,8.7l0,16.2l-13,7.5c-3.5-3.3-7.7-5.8-12.5-7.2V53.5l14-8.1c4.2-2.4,5.6-7.8,3.2-11.9c-2.4-4.2-7.8-5.6-11.9-3.2
	l-5.3,3V13.6c0-4.8-3.9-8.7-8.7-8.7c-4.8,0-8.7,3.9-8.7,8.7v19.7l-5.3-3c-4.2-2.4-9.5-1-11.9,3.2c-2.4,4.2-1,9.5,3.2,11.9l14,8.1
	v14.9c-4.7,1.4-9,3.9-12.5,7.2l-13-7.5V52c0-4.8-3.9-8.7-8.7-8.7c-4.8,0-8.7,3.9-8.7,8.7v6.1l-17-9.8c-4.2-2.4-9.5-1-11.9,3.2
	c-2.4,4.2-1,9.5,3.2,11.9l17,9.8l-5.3,3c-4.2,2.4-5.6,7.8-3.2,11.9c1.6,2.8,4.6,4.4,7.6,4.4c1.5,0,3-0.4,4.4-1.2l14-8.1l12.9,7.5
	c-0.6,2.3-0.9,4.7-0.9,7.2c0,2.5,0.3,4.9,0.9,7.2l-12.9,7.5l-14-8.1c-4.2-2.4-9.5-1-11.9,3.2c-2.4,4.2-1,9.5,3.2,11.9l5.3,3l-17,9.8
	c-4.2,2.4-5.6,7.8-3.2,11.9c1.6,2.8,4.6,4.4,7.6,4.4c1.5,0,3-0.4,4.4-1.2l17-9.8v6.1c0,4.8,3.9,8.7,8.7,8.7c4.8,0,8.7-3.9,8.7-8.7
	l0-16.2l13-7.5c3.5,3.3,7.8,5.8,12.5,7.2v14.9l-14,8.1c-4.2,2.4-5.6,7.8-3.2,11.9c2.4,4.2,7.8,5.6,11.9,3.2l5.3-3v19.7
	c0,4.8,3.9,8.7,8.7,8.7c4.8,0,8.7-3.9,8.7-8.7v-19.7l5.3,3c1.4,0.8,2.9,1.2,4.4,1.2c3,0,6-1.6,7.6-4.4c2.4-4.2,1-9.5-3.2-11.9
	l-14-8.1v-14.9c4.7-1.4,9-3.9,12.5-7.2l13,7.5V144c0,4.8,3.9,8.7,8.7,8.7c4.8,0,8.7-3.9,8.7-8.7v-6.1l17,9.8
	c1.4,0.8,2.9,1.2,4.4,1.2c3,0,6-1.6,7.6-4.4C181.6,140.4,180.1,135,175.9,132.6z M98.5,111.4c-7.4,0-13.4-6-13.4-13.4
	c0-7.4,6-13.4,13.4-13.4c7.4,0,13.4,6,13.4,13.4C111.9,105.4,105.9,111.4,98.5,111.4z"/>
</svg>
