<?xml version="1.0" encoding="utf-8"?>
<!-- Generator: Adobe Illustrator 27.0.1, SVG Export Plug-In . SVG Version: 6.00 Build 0)  -->
<svg version="1.1" id="Capa_1" xmlns="http://www.w3.org/2000/svg" xmlns:xlink="http://www.w3.org/1999/xlink" x="0px" y="0px"
	 viewBox="0 0 197 196" style="enable-background:new 0 0 197 196;" xml:space="preserve">
<style type="text/css">
	.st0{fill:url(#SVGID_1_);}
	.st1{fill:url(#SVGID_00000026854422245207732510000004194748489585126590_);}
	.st2{fill:url(#SVGID_00000129912312215108085340000010485176291229813902_);}
	.st3{opacity:0.6;fill:url(#SVGID_00000150818232314078534120000010644538097579519116_);}
	.st4{opacity:0.4;fill:url(#SVGID_00000158014130336473336430000007514347268103926427_);}
	.st5{opacity:0.2;fill:url(#SVGID_00000078763968883392000430000012779917118400534185_);}
</style>
<g>
	<linearGradient id="SVGID_1_" gradientUnits="userSpaceOnUse" x1="61.8912" y1="186.8498" x2="84.1036" y2="116.9047">
		<stop  offset="0.1559" style="stop-color:#FFE036"/>
		<stop  offset="1" style="stop-color:#FA761C"/>
	</linearGradient>
	<path class="st0" d="M87.5,143.7h-1.8h-6.7L93,116.7c0.6-1.2,1.1-2.5,1.4-3.9c1.8-8.4-3.6-16.6-11.9-18.4
		c-8.4-1.8-16.6,3.6-18.4,11.9l-9.3,43.5l-0.3,1.3c-0.1,0.6-0.2,1.3-0.2,1.9c0,5.2,4.2,9.4,9.4,9.4H74l-5.5,23.1
		c-0.2,0.8,0.1,1.7,0.8,2.3c1,0.7,2.3,0.5,3-0.5l22-30.4c1-1.4,1.6-3.1,1.6-5C96,147.4,92.2,143.7,87.5,143.7z"/>
	
		<linearGradient id="SVGID_00000066508788394864598870000003505347978659331465_" gradientUnits="userSpaceOnUse" x1="109.3441" y1="186.85" x2="131.5567" y2="116.9043">
		<stop  offset="0.1559" style="stop-color:#FFE036"/>
		<stop  offset="1" style="stop-color:#FA761C"/>
	</linearGradient>
	<path style="fill:url(#SVGID_00000066508788394864598870000003505347978659331465_);" d="M135,143.7h-1.8h-6.7l13.9-26.9
		c0.6-1.2,1.1-2.5,1.4-3.9c1.8-8.4-3.6-16.6-11.9-18.4c-8.4-1.8-16.6,3.6-18.4,11.9l-9.3,43.5l-0.3,1.3c-0.1,0.6-0.2,1.3-0.2,1.9
		c0,5.2,4.2,9.4,9.4,9.4h10.3l-5.5,23.1c-0.2,0.8,0.1,1.7,0.8,2.3c1,0.7,2.3,0.5,3-0.5l22-30.4c1-1.4,1.6-3.1,1.6-5
		C143.4,147.4,139.6,143.7,135,143.7z"/>
	<g>
		<g>
			
				<radialGradient id="SVGID_00000004545830136888811380000011690464426030197676_" cx="120.8865" cy="34.2271" r="135.4137" gradientTransform="matrix(-1 0 0 -0.7305 241.7729 59.2295)" gradientUnits="userSpaceOnUse">
				<stop  offset="0" style="stop-color:#B6CCD2"/>
				<stop  offset="0.198" style="stop-color:#97B6BE"/>
				<stop  offset="1" style="stop-color:#5D87B4"/>
			</radialGradient>
			<path style="fill:url(#SVGID_00000004545830136888811380000011690464426030197676_);" d="M150.4,56.1
				C148.6,29.1,126,7.7,98.5,7.7C71,7.7,48.4,29.1,46.6,56.1c-20.5,1-36.8,18-36.8,38.7c0,21.4,17.4,38.8,38.8,38.8h100
				c21.4,0,38.8-17.4,38.8-38.8C187.3,74.1,170.9,57.2,150.4,56.1z"/>
			
				<radialGradient id="SVGID_00000094579999397707639940000015287415581474761867_" cx="1118.0649" cy="-1818.4795" r="16.3372" gradientTransform="matrix(-0.8392 1.1536 -1.6186 -1.3126 -1889.2531 -3634.6194)" gradientUnits="userSpaceOnUse">
				<stop  offset="0" style="stop-color:#FFFFFF"/>
				<stop  offset="1" style="stop-color:#FFFFFF;stop-opacity:0"/>
			</radialGradient>
			<path style="opacity:0.6;fill:url(#SVGID_00000094579999397707639940000015287415581474761867_);" d="M102.1,61
				C87.5,49.1,81.8,31.1,89.4,20.7c7.6-10.4,25.5-9.2,40.2,2.6c14.6,11.8,20.3,29.9,12.7,40.3C134.7,74,116.7,72.8,102.1,61z"/>
			
				<radialGradient id="SVGID_00000178889163293875385920000018165820119518468247_" cx="1119.1862" cy="-1847.2439" r="12.8395" gradientTransform="matrix(-0.8392 1.1536 -1.6186 -1.3126 -1889.2531 -3634.6194)" gradientUnits="userSpaceOnUse">
				<stop  offset="0" style="stop-color:#FFFFFF"/>
				<stop  offset="1" style="stop-color:#FFFFFF;stop-opacity:0"/>
			</radialGradient>
			<path style="opacity:0.4;fill:url(#SVGID_00000178889163293875385920000018165820119518468247_);" d="M150.7,96
				c-11.5-9.3-16-23.5-10-31.7c6-8.2,20.1-7.3,31.6,2c11.5,9.3,16,23.5,10,31.7C176.3,106.2,162.2,105.3,150.7,96z"/>
			
				<radialGradient id="SVGID_00000131331546006770937290000013821299838179665338_" cx="30.8083" cy="106.9856" r="9.3885" gradientTransform="matrix(0.901 -0.4338 1.2628 2.6229 -132.0481 -160.2646)" gradientUnits="userSpaceOnUse">
				<stop  offset="0" style="stop-color:#FFFFFF"/>
				<stop  offset="1" style="stop-color:#FFFFFF;stop-opacity:0"/>
			</radialGradient>
			<path style="opacity:0.2;fill:url(#SVGID_00000131331546006770937290000013821299838179665338_);" d="M37.5,97.3
				c-8.5-13.2-18.3-19.6-22-14.2c-3.7,5.3,0.2,20.4,8.7,33.6c8.5,13.2,18.3,19.6,22,14.2C49.8,125.5,45.9,110.5,37.5,97.3z"/>
		</g>
	</g>
</g>
</svg>
